<?xml version="1.0" encoding="utf-8"?>
<!-- Generator: Adobe Illustrator 19.2.1, SVG Export Plug-In . SVG Version: 6.00 Build 0)  -->
<svg version="1.1" id="Layer_1" xmlns="http://www.w3.org/2000/svg" xmlns:xlink="http://www.w3.org/1999/xlink" x="0px" y="0px"
	 viewBox="0 0 2181 246.6" style="enable-background:new 0 0 2181 246.6;" xml:space="preserve">
<style type="text/css">
	.st0{fill:#0088CE;}
	.st1{fill:#453E4B;}
	.st2{fill:#FFFFFF;}
</style>
<g>
	<path class="st2" d="M80.9,234.1c-16.6,0-30.5-3.3-41.5-10c-11.1-6.7-20.2-14.9-27.4-24.8l24.9-25.5c6.4,8,12.9,14.2,19.5,18.6
		c6.7,4.4,14.6,6.6,23.8,6.6c10.3,0,18.5-3.4,24.8-10.3c6.3-6.9,9.4-17.5,9.4-31.8V15.6h38.8v142.1c0,12.9-1.7,24.1-5.2,33.5
		c-3.5,9.4-8.4,17.3-14.8,23.7c-6.4,6.4-14,11.1-22.8,14.3C101.6,232.5,91.8,234.1,80.9,234.1z"/>
	<path class="st2" d="M198.5,15.6h37.5v89.5h103.4V15.6H377V231h-37.5v-90.8H236.1V231h-37.5V15.6z"/>
	<path class="st2" d="M526,234.7c-15.8,0-30.4-2.9-43.7-8.6c-13.3-5.7-24.9-13.6-34.7-23.5c-9.8-9.9-17.5-21.7-23.1-35.2
		c-5.6-13.5-8.4-28-8.4-43.4v-0.6c0-15.4,2.7-29.8,8.2-43.2c5.5-13.4,13.2-25.2,23.1-35.4c9.9-10.2,21.6-18.2,35.2-24
		c13.5-5.8,28.5-8.8,44.9-8.8c9.8,0,18.8,0.8,26.9,2.5c8.1,1.6,15.5,4,22.3,6.9c6.8,3,13,6.5,18.8,10.6c5.7,4.1,11.2,8.6,16.3,13.5
		l-24.3,28c-8.6-8-17.7-14.5-27.4-19.4c-9.6-4.9-20.6-7.4-32.9-7.4c-10.3,0-19.7,2-28.5,6c-8.7,4-16.3,9.4-22.6,16.3
		c-6.4,6.9-11.3,14.9-14.8,24.1c-3.5,9.2-5.2,19.1-5.2,29.5v0.6c0,10.5,1.7,20.4,5.2,29.7c3.5,9.3,8.4,17.5,14.8,24.5
		c6.4,7,13.9,12.5,22.6,16.5c8.7,4,18.2,6,28.5,6c13.1,0,24.4-2.5,33.8-7.5c9.4-5,18.8-11.8,28-20.5l24.3,24.6
		c-5.5,5.9-11.3,11.2-17.4,15.8c-6.1,4.6-12.6,8.6-19.5,12c-7,3.4-14.6,6-22.9,7.7C545.2,233.8,536.1,234.7,526,234.7z"/>
	<path class="st2" d="M812.6,234.1c-17.2,0-33-2.8-47.2-8.5c-14.3-5.6-27.8-14.3-40.8-26l15.1-17.8c11.3,10.3,22.7,17.9,34.1,22.9
		c11.5,5,24.7,7.5,39.7,7.5c14.6,0,26.2-3.4,34.9-10.3c8.7-6.9,13.1-15.6,13.1-26.3V175c0-4.9-0.8-9.4-2.5-13.4
		c-1.6-4-4.5-7.6-8.6-10.9c-4.1-3.3-9.8-6.3-17.1-8.9c-7.3-2.7-16.6-5.2-27.9-7.7c-12.3-2.7-23.1-5.7-32.2-9.2
		c-9.2-3.5-16.7-7.7-22.7-12.6c-6-4.9-10.4-10.7-13.3-17.2c-2.9-6.6-4.3-14.3-4.3-23.1v-0.6c0-8.4,1.7-16.2,5.2-23.4
		c3.5-7.2,8.4-13.4,14.8-18.6c6.4-5.2,13.8-9.3,22.5-12.3c8.6-3,18-4.5,28.3-4.5c15.8,0,29.6,2.2,41.4,6.6
		c11.8,4.4,23.2,11,34.3,19.8l-14.2,18.8c-10.1-8.2-20.2-14.2-30.3-17.8c-10.2-3.7-20.8-5.5-31.8-5.5c-14.2,0-25.3,3.3-33.5,10
		c-8.2,6.7-12.3,14.9-12.3,24.8v0.6c0,5.1,0.8,9.7,2.5,13.7c1.6,4,4.6,7.7,8.9,11.1c4.3,3.4,10.3,6.5,17.8,9.2
		c7.6,2.8,17.3,5.4,29.2,7.8c24,5.3,41.7,12.7,53.1,22.1c11.4,9.4,17.1,22.4,17.1,38.8v0.6c0,9.2-1.8,17.6-5.5,25.1
		c-3.6,7.5-8.7,13.9-15.1,19.2c-6.4,5.3-14.1,9.4-23.1,12.3C833.1,232.6,823.3,234.1,812.6,234.1z"/>
	<path class="st2" d="M1003.5,145.8L914,15.6h29.5l72.4,107.7L1089,15.6h28.3l-89.5,129.8V231h-24.3V145.8z"/>
	<path class="st2" d="M1223.4,234.1c-17.2,0-33-2.8-47.2-8.5c-14.3-5.6-27.8-14.3-40.8-26l15.1-17.8c11.3,10.3,22.7,17.9,34.1,22.9
		c11.5,5,24.7,7.5,39.7,7.5c14.6,0,26.2-3.4,34.9-10.3c8.7-6.9,13.1-15.6,13.1-26.3V175c0-4.9-0.8-9.4-2.5-13.4
		c-1.6-4-4.5-7.6-8.6-10.9c-4.1-3.3-9.8-6.3-17.1-8.9c-7.3-2.7-16.6-5.2-27.9-7.7c-12.3-2.7-23.1-5.7-32.2-9.2
		c-9.2-3.5-16.7-7.7-22.7-12.6c-6-4.9-10.4-10.7-13.3-17.2c-2.9-6.6-4.3-14.3-4.3-23.1v-0.6c0-8.4,1.7-16.2,5.2-23.4
		c3.5-7.2,8.4-13.4,14.8-18.6c6.4-5.2,13.8-9.3,22.5-12.3c8.6-3,18-4.5,28.3-4.5c15.8,0,29.6,2.2,41.4,6.6
		c11.8,4.4,23.2,11,34.3,19.8L1276,57.8c-10.1-8.2-20.2-14.2-30.3-17.8c-10.2-3.7-20.8-5.5-31.8-5.5c-14.2,0-25.3,3.3-33.5,10
		c-8.2,6.7-12.3,14.9-12.3,24.8v0.6c0,5.1,0.8,9.7,2.5,13.7c1.6,4,4.6,7.7,8.9,11.1c4.3,3.4,10.3,6.5,17.8,9.2
		c7.6,2.8,17.3,5.4,29.2,7.8c24,5.3,41.7,12.7,53.1,22.1c11.4,9.4,17.1,22.4,17.1,38.8v0.6c0,9.2-1.8,17.6-5.5,25.1
		c-3.6,7.5-8.7,13.9-15.1,19.2c-6.4,5.3-14.1,9.4-23.1,12.3C1243.9,232.6,1234,234.1,1223.4,234.1z"/>
	<path class="st2" d="M1407.7,38.1h-72.3V15.6h168.9v22.5h-72.3V231h-24.3V38.1z"/>
	<path class="st2" d="M1553.1,15.6h155.7v21.8h-131.4v74.1H1695v21.8h-117.5v75.7h132.9V231h-157.2V15.6z"/>
	<path class="st2" d="M1757.3,15.6h24.6l78.4,117.5l78.4-117.5h24.6V231h-24.3V56.6l-78.4,115.4h-1.2L1781,56.9V231h-23.7V15.6z"/>
	<path class="st2" d="M2095.8,234.1c-17.2,0-33-2.8-47.2-8.5c-14.3-5.6-27.8-14.3-40.8-26l15.1-17.8c11.3,10.3,22.7,17.9,34.1,22.9
		c11.5,5,24.7,7.5,39.7,7.5c14.6,0,26.2-3.4,34.9-10.3c8.7-6.9,13.1-15.6,13.1-26.3V175c0-4.9-0.8-9.4-2.5-13.4
		c-1.6-4-4.5-7.6-8.6-10.9c-4.1-3.3-9.8-6.3-17.1-8.9c-7.3-2.7-16.6-5.2-27.9-7.7c-12.3-2.7-23.1-5.7-32.2-9.2
		c-9.2-3.5-16.7-7.7-22.7-12.6c-6-4.9-10.4-10.7-13.3-17.2c-2.9-6.6-4.3-14.3-4.3-23.1v-0.6c0-8.4,1.7-16.2,5.2-23.4
		c3.5-7.2,8.4-13.4,14.8-18.6c6.4-5.2,13.8-9.3,22.5-12.3c8.6-3,18-4.5,28.3-4.5c15.8,0,29.6,2.2,41.4,6.6
		c11.8,4.4,23.2,11,34.3,19.8l-14.2,18.8c-10.1-8.2-20.2-14.2-30.3-17.8c-10.2-3.7-20.8-5.5-31.8-5.5c-14.2,0-25.3,3.3-33.5,10
		c-8.2,6.7-12.3,14.9-12.3,24.8v0.6c0,5.1,0.8,9.7,2.5,13.7c1.6,4,4.6,7.7,8.9,11.1c4.3,3.4,10.3,6.5,17.8,9.2
		c7.6,2.8,17.3,5.4,29.2,7.8c24,5.3,41.7,12.7,53.1,22.1c11.4,9.4,17.1,22.4,17.1,38.8v0.6c0,9.2-1.8,17.6-5.5,25.1
		c-3.6,7.5-8.7,13.9-15.1,19.2c-6.4,5.3-14.1,9.4-23.1,12.3C2116.3,232.6,2106.4,234.1,2095.8,234.1z"/>
</g>
</svg>
